<?xml version="1.0" encoding="UTF-8" standalone="no"?><!DOCTYPE svg PUBLIC "-//W3C//DTD SVG 1.1//EN" "http://www.w3.org/Graphics/SVG/1.1/DTD/svg11.dtd"><svg width="100%" height="100%" viewBox="0 0 600 100" version="1.1" xmlns="http://www.w3.org/2000/svg" xmlns:xlink="http://www.w3.org/1999/xlink" xml:space="preserve" style="fill-rule:evenodd;clip-rule:evenodd;stroke-linejoin:round;stroke-miterlimit:1.41421;"><g id="Layer_4"><path d="M55.2,5.2l19.8,0l0,89.4l-19.8,0l0,-34.7l-35.4,0l0,34.8l-19.8,0l0,-89.5l19.8,0l0,37.2l35.4,0l0,-37.2Zm187.8,77.5c-9,9 -20.4,13.2 -33,13.2c-13.2,0 -24,-4.2 -33,-13.2c-9,-9 -13.8,-19.8 -13.8,-33c0,-13.2 4.8,-24 13.8,-33c8.4,-8.4 19.2,-12.6 32.4,-12.6c13.2,0 24,4.2 33,13.2c9,9 13.8,19.8 13.8,33c0,13.2 -4.2,24 -13.2,32.4Zm-7.3,-32.5c0,-7.8 -2.4,-15 -7.8,-20.4c-5.4,-5.4 -11.4,-8.4 -18.6,-8.4c-7.3,0 -13.8,3 -18.6,8.4c-5.4,5.4 -7.8,12.6 -7.8,20.4c0,7.8 2.4,15 7.8,20.4c5.4,5.4 11.4,8.4 18.6,8.4c7.2,0 13.8,-3 18.6,-8.4c5.5,-6 7.8,-12.5 7.8,-20.4l0,0Zm350.5,32.5c-9,9 -20.4,13.2 -33,13.2c-13.2,0 -24,-4.2 -33,-13.2c-9,-9 -13.8,-19.8 -13.8,-33c0,-13.2 4.8,-24 13.8,-33c9,-8.4 19.8,-12.6 33,-12.6c13.2,0 24,4.2 33,13.2c9,9 13.8,19.8 13.8,33c0,13.2 -4.8,24 -13.8,32.4Zm-6.7,-32.5c0,-7.8 -2.4,-15 -7.8,-20.4c-5.4,-5.4 -11.4,-8.4 -18.6,-8.4c-7.2,0 -13.8,3 -18.6,8.4c-5.4,5.4 -7.8,12.6 -7.8,20.4c0,7.8 2.4,15 7.8,20.4c5.4,5.4 11.4,8.4 18.6,8.4c7.2,0 13.8,-3 18.6,-8.4c5.5,-6 7.8,-12.5 7.8,-20.4l0,0Z" style="fill:#fff;fill-rule:nonzero;"/><path id="XMLID_220_" d="M393,5.2l25.8,0c0,0 -33.6,40.2 -36.6,44.4l36.6,44.4l-25.8,0l-29.4,-35.4l0,34.8l-19.8,0l0,-87.9l19.8,0l0,34.8l29.4,-35.1Z" style="fill:#fff;fill-rule:nonzero;"/></g></svg>