<svg xmlns="http://www.w3.org/2000/svg" viewBox="0 0 600 100" enable-background="new 0 0 600 100"><g id="Layer_4"><path d="M55.2 5.2H75v89.4H55.2V59.9H19.8v34.8H0V5.2h19.8v37.2h35.4V5.2zM243 82.7c-9 9-20.4 13.2-33 13.2-13.2 0-24-4.2-33-13.2s-13.8-19.8-13.8-33 4.8-24 13.8-33c8.4-8.4 19.2-12.6 32.4-12.6s24 4.2 33 13.2 13.8 19.8 13.8 33-4.2 24-13.2 32.4zm-7.3-32.5c0-7.8-2.4-15-7.8-20.4-5.4-5.4-11.4-8.4-18.6-8.4-7.3 0-13.8 3-18.6 8.4-5.4 5.4-7.8 12.6-7.8 20.4s2.4 15 7.8 20.4c5.4 5.4 11.4 8.4 18.6 8.4 7.2 0 13.8-3 18.6-8.4 5.5-6 7.8-12.5 7.8-20.4zM586.2 82.7c-9 9-20.4 13.2-33 13.2-13.2 0-24-4.2-33-13.2s-13.8-19.8-13.8-33 4.8-24 13.8-33c9-8.4 19.8-12.6 33-12.6s24 4.2 33 13.2 13.8 19.8 13.8 33-4.8 24-13.8 32.4zm-6.7-32.5c0-7.8-2.4-15-7.8-20.4-5.4-5.4-11.4-8.4-18.6-8.4-7.2 0-13.8 3-18.6 8.4-5.4 5.4-7.8 12.6-7.8 20.4s2.4 15 7.8 20.4c5.4 5.4 11.4 8.4 18.6 8.4 7.2 0 13.8-3 18.6-8.4 5.5-6 7.8-12.5 7.8-20.4z" fill="#000"/><path d="M393 5.2h25.8s-33.6 40.2-36.6 44.4L418.8 94H393l-29.4-35.4v34.8h-19.8V5.5h19.8v34.8L393 5.2z" fill="#000" id="XMLID_220_"/></g></svg>
