<?xml version="1.0" encoding="utf-8"?>
<!-- Generator: Adobe Illustrator 19.2.1, SVG Export Plug-In . SVG Version: 6.00 Build 0)  -->
<svg version="1.1" xmlns="http://www.w3.org/2000/svg" xmlns:xlink="http://www.w3.org/1999/xlink" x="0px" y="0px"
	 viewBox="0 0 67.8 17" enable-background="new 0 0 67.8 17" xml:space="preserve">
<g id="Devices">
	<path opacity="0.5" fill="#FFFFFF" d="M20.1,4.1H18V13h1.3V8.8h1c0.7,0,1.3-0.2,1.6-0.5c0.4-0.4,0.6-0.9,0.6-1.6
		c0-1.7-0.7-2.5-2.2-2.5 M21.2,7.3c-0.1,0.2-0.2,0.3-0.3,0.4c-0.1,0.1-0.3,0.2-0.5,0.2c-0.2,0-0.4,0.1-0.7,0.1h-0.4V5h0.4
		C20,5,20.3,5,20.5,5.1c0.2,0,0.4,0.2,0.5,0.3c0.1,0.1,0.2,0.3,0.3,0.5c0,0.2,0.1,0.5,0.1,0.8C21.3,6.9,21.3,7.1,21.2,7.3 M24.3,4.1
		L22.4,13h1.3l0.5-2.1h1.6l0.5,2.1h1.3l-1.9-8.9H24.3z M24.3,9.6l0.6-3.8l0.6,3.8H24.3z M30.1,5.1c0.4,0,0.7,0.1,0.9,0.4
		c0.2,0.2,0.3,0.6,0.4,1c0,0.1,0,0.2,0,0.2l1.3-0.3c0-0.1,0-0.2,0-0.3c-0.1-0.6-0.4-1.1-0.8-1.5c-0.4-0.3-1-0.5-1.7-0.5
		c-0.7,0-1.2,0.2-1.6,0.6c-0.4,0.4-0.6,0.9-0.6,1.5c0,0.4,0.1,0.8,0.3,1.2c0.2,0.3,0.4,0.6,0.7,0.9l1.6,1.3c0.1,0.1,0.3,0.2,0.3,0.3
		c0.1,0.1,0.2,0.2,0.3,0.3c0.1,0.1,0.2,0.3,0.2,0.4c0.1,0.2,0.1,0.3,0.1,0.5c0,0.6-0.3,0.9-0.9,0.9c-0.8,0-1.2-0.6-1.3-1.9l-1.3,0.3
		c0,0.8,0.3,1.4,0.7,1.9c0.4,0.5,1,0.7,1.8,0.7c0.7,0,1.2-0.2,1.6-0.5c0.4-0.4,0.6-0.9,0.6-1.5c0-0.9-0.4-1.7-1.3-2.4l-1.6-1.3
		c-0.4-0.3-0.6-0.7-0.6-1.2c0-0.3,0.1-0.5,0.2-0.7C29.6,5.2,29.8,5.1,30.1,5.1 M35.5,5.1c0.4,0,0.7,0.1,0.9,0.4
		c0.2,0.2,0.3,0.6,0.4,1c0,0.1,0,0.2,0,0.2L38,6.3c0-0.1,0-0.2,0-0.3c-0.1-0.6-0.4-1.1-0.8-1.5c-0.4-0.3-1-0.5-1.7-0.5
		c-0.7,0-1.2,0.2-1.6,0.6c-0.4,0.4-0.6,0.9-0.6,1.5c0,0.4,0.1,0.8,0.3,1.2C33.8,7.7,34,8,34.3,8.2l1.6,1.3c0.1,0.1,0.3,0.2,0.3,0.3
		c0.1,0.1,0.2,0.2,0.3,0.3c0.1,0.1,0.2,0.3,0.2,0.4c0.1,0.2,0.1,0.3,0.1,0.5c0,0.6-0.3,0.9-0.9,0.9c-0.8,0-1.2-0.6-1.3-1.9l-1.3,0.3
		c0,0.8,0.3,1.4,0.7,1.9c0.4,0.5,1,0.7,1.8,0.7c0.7,0,1.2-0.2,1.6-0.5c0.4-0.4,0.6-0.9,0.6-1.5c0-0.9-0.4-1.7-1.3-2.4l-1.6-1.3
		c-0.4-0.3-0.6-0.7-0.6-1.2c0-0.3,0.1-0.5,0.2-0.7C35,5.2,35.2,5.1,35.5,5.1 M44.1,8.2l-0.3,2.5l-0.3-2.5l-0.6-4.1h-1.3l-0.6,4.1
		l-0.3,2.5l-0.3-2.5l-0.6-4.1h-1.3L40,13h1.3l0.6-4.1l0.3-2.5l0.3,2.6l0.6,4.1h1.3l1.6-8.9h-1.3L44.1,8.2z M48.9,4
		c-0.4,0-0.8,0.1-1.1,0.2c-0.3,0.1-0.6,0.3-0.8,0.6c-0.2,0.3-0.3,0.6-0.4,0.9c-0.1,0.3-0.1,0.7-0.1,1.2v3.2c0,0.5,0,0.9,0.1,1.2
		c0.1,0.3,0.2,0.7,0.4,0.9c0.2,0.3,0.4,0.5,0.7,0.6c0.3,0.1,0.7,0.2,1.1,0.2c0.4,0,0.8-0.1,1.1-0.2c0.3-0.1,0.6-0.3,0.8-0.6
		c0.2-0.3,0.3-0.6,0.3-0.9c0.1-0.3,0.1-0.7,0.1-1.2V6.9c0-0.9-0.1-1.6-0.5-2.1C50.3,4.3,49.7,4,48.9,4 M49.9,10.4
		c0,0.5,0,0.9-0.2,1.2c-0.2,0.3-0.4,0.4-0.9,0.4c-0.4,0-0.7-0.1-0.9-0.4c-0.2-0.3-0.2-0.7-0.2-1.2V6.6c0-0.5,0.1-0.9,0.2-1.1
		c0.2-0.3,0.5-0.4,0.9-0.4s0.7,0.1,0.8,0.4c0.2,0.3,0.2,0.6,0.2,1.1V10.4z M56.5,7.8c0.2-0.4,0.3-0.8,0.3-1.3c0-0.8-0.2-1.5-0.7-1.8
		c-0.5-0.4-1.2-0.6-2.1-0.6h-1.5V13h1.3V8.8h0.9l1.3,4.3h1.2l-1.4-4.5C56.1,8.5,56.4,8.1,56.5,7.8 M55.2,7.6
		c-0.3,0.2-0.7,0.4-1.2,0.4h-0.3V5H54c0.5,0,0.9,0.2,1.2,0.4c0.3,0.2,0.4,0.6,0.4,1.1C55.6,7,55.4,7.4,55.2,7.6 M62.6,4.1H61
		l-1.7,3.8V4.1H58V13h1.3v-3l0.6-1.2l1.5,4.1h1.6l-2.2-5.4L62.6,4.1z M66.6,8.5L65,7.3c-0.4-0.3-0.6-0.7-0.6-1.2
		c0-0.3,0.1-0.5,0.2-0.7c0.2-0.2,0.4-0.3,0.7-0.3c0.4,0,0.7,0.1,0.9,0.4c0.2,0.2,0.3,0.6,0.4,1c0,0.1,0,0.2,0,0.2l1.3-0.3
		c0-0.1,0-0.2,0-0.3c-0.1-0.6-0.4-1.1-0.8-1.5C66.6,4.2,66,4,65.3,4c-0.7,0-1.2,0.2-1.6,0.6c-0.4,0.4-0.6,0.9-0.6,1.5
		c0,0.4,0.1,0.8,0.3,1.2c0.2,0.3,0.4,0.6,0.7,0.9l1.6,1.3c0.1,0.1,0.3,0.2,0.3,0.3c0.1,0.1,0.2,0.2,0.3,0.3c0.1,0.1,0.2,0.3,0.2,0.4
		c0.1,0.2,0.1,0.3,0.1,0.5c0,0.6-0.3,0.9-0.9,0.9c-0.8,0-1.2-0.6-1.3-1.9l-1.3,0.3c0,0.8,0.3,1.4,0.7,1.9c0.4,0.5,1,0.7,1.8,0.7
		c0.7,0,1.2-0.2,1.6-0.5c0.4-0.4,0.6-0.9,0.6-1.5C67.8,10,67.4,9.2,66.6,8.5 M11.2,8.5c0-0.5-0.4-0.9-0.9-0.9C9.8,7.7,9.5,8,9.5,8.5
		c0,0.5,0.4,0.9,0.9,0.9C10.8,9.4,11.2,9,11.2,8.5 M7.9,8.5c0-0.7-0.6-1.3-1.3-1.3c-0.7,0-1.3,0.6-1.3,1.3c0,0.7,0.6,1.3,1.3,1.3
		C7.3,9.9,7.9,9.3,7.9,8.5 M3.8,8.5c0-1.1-0.9-1.9-1.9-1.9C0.9,6.6,0,7.5,0,8.5c0,1.1,0.9,1.9,1.9,1.9C3,10.4,3.8,9.6,3.8,8.5
		 M11.6,0.1C11.6,0.1,9.8,0,8,0C6.2,0,4.4,0.1,4.4,0.1c-1.9,0.2-2.8,1.1-3,3c0,0,0,1.2-0.1,2.6c0.2,0,0.4-0.1,0.6-0.1
		c0.2,0,0.5,0,0.7,0.1c0-1.2,0.1-2.3,0.1-2.5C2.9,2,3.3,1.6,4.5,1.5c0.2,0,1.8-0.1,3.5-0.1c1.6,0,3.3,0.1,3.5,0.1
		c1.2,0.1,1.6,0.6,1.8,1.8c0,0.4,0.1,3,0.1,5.3c0,2.3-0.1,5.1-0.1,5.3c-0.1,1-0.7,1.6-1.8,1.8c-0.2,0-1.9,0.1-3.5,0.1
		c-1.6,0-3.3-0.1-3.5-0.1c-1.2-0.1-1.7-0.6-1.8-1.8c0-0.2,0-1.3-0.1-2.5c-0.2,0.1-0.5,0.1-0.7,0.1c-0.2,0-0.4,0-0.6-0.1
		c0,1.4,0.1,2.6,0.1,2.6c0.1,1.7,1,2.8,3,3c0,0,1.8,0.1,3.6,0.1c1.8,0,3.6-0.1,3.6-0.1c1.8-0.2,2.9-1.3,3-3c0,0,0.1-2.9,0.1-5.4
		c0-2.5-0.1-5.4-0.1-5.4C14.3,1.2,13.4,0.3,11.6,0.1"/>
</g>
<g id="Gray_Background">
</g>
<g id="Background_Color">
</g>
<g id="Strip_Image">
</g>
<g id="Gradient_Shadow">
</g>
<g id="Passworks_Logo">
</g>
<g id="Android_device">
</g>
<g id="Android_background">
</g>
<g id="Install_Pass_button">
</g>
<g id="iPhone_device">
</g>
<g id="Instructions">
</g>
<g id="Selected_bar">
</g>
<g id="Numbers">
</g>
<g id="Arrows">
</g>
<g id="Google_Play_Icon">
</g>
<g id="Pass2U_Icon">
</g>
<g id="Passbook_Icon">
</g>
<g id="Apple_Wallet_Icon">
</g>
<g id="White_Modal">
</g>
<g id="Add_to_Wallet">
</g>
<g id="QR_Code">
</g>
<g id="iPhone_WIreframe">
</g>
<g id="Android_Wireframe">
</g>
<g id="Passe">
</g>
<g id="Go_up-down_Arrows">
</g>
<g id="Nav_Bar">
</g>
<g id="Texto">
</g>
<g id="_x31_170px_grid" display="none">
</g>
</svg>
